# xmcd CD database file
#
# Track frame offsets:
#	150
#	22889
#	44998
#	86413
#	105011
#	127353
#	184707
#	200392
#	243547
#
# Disc length: 3604 seconds
#
# Revision: 0
# Processed by: cddbd v1.5.1PL0 Copyright (c) Steve Scherf et al.
# Submitted via: CDex 1.51
#
DISCID=750e1209
DTITLE=Мариам и "Мирайф" - The Bridge
DYEAR=2002
DGENRE=Jazz
TTITLE0=Summertime
TTITLE1=Route 66
TTITLE2=There will never be another you
TTITLE3=I wont to go home
TTITLE4=Once I loved
TTITLE5=Blue seven
TTITLE6=All of me
TTITLE7=Blues for mama
TTITLE8=How do you keep the music play
EXTD=YEAR: 2002
EXTT0=
EXTT1=
EXTT2=
EXTT3=
EXTT4=
EXTT5=
EXTT6=
EXTT7=
EXTT8=
PLAYORDER=
